<svg id="visual" viewBox="0 0 900 600" width="900" height="600" xmlns="http://www.w3.org/2000/svg" xmlns:xlink="http://www.w3.org/1999/xlink" version="1.1"><rect x="0" y="0" width="900" height="600" fill="#001122"></rect><path d="M0 219L25 233C50 247 100 275 150 280C200 285 250 267 300 262.2C350 257.3 400 265.7 450 257.8C500 250 550 226 600 235C650 244 700 286 750 287.5C800 289 850 250 875 230.5L900 211L900 601L875 601C850 601 800 601 750 601C700 601 650 601 600 601C550 601 500 601 450 601C400 601 350 601 300 601C250 601 200 601 150 601C100 601 50 601 25 601L0 601Z" fill="#0066ff"></path><path d="M0 343L25 338.5C50 334 100 325 150 325.2C200 325.3 250 334.7 300 327.3C350 320 400 296 450 283.5C500 271 550 270 600 273.5C650 277 700 285 750 301.3C800 317.7 850 342.3 875 354.7L900 367L900 601L875 601C850 601 800 601 750 601C700 601 650 601 600 601C550 601 500 601 450 601C400 601 350 601 300 601C250 601 200 601 150 601C100 601 50 601 25 601L0 601Z" fill="#0074ff"></path><path d="M0 309L25 324.7C50 340.3 100 371.7 150 371.2C200 370.7 250 338.3 300 326.8C350 315.3 400 324.7 450 340C500 355.3 550 376.7 600 380.7C650 384.7 700 371.3 750 359.8C800 348.3 850 338.7 875 333.8L900 329L900 601L875 601C850 601 800 601 750 601C700 601 650 601 600 601C550 601 500 601 450 601C400 601 350 601 300 601C250 601 200 601 150 601C100 601 50 601 25 601L0 601Z" fill="#0080ff"></path><path d="M0 420L25 421.2C50 422.3 100 424.7 150 416.3C200 408 250 389 300 384.7C350 380.3 400 390.7 450 400.7C500 410.7 550 420.3 600 425C650 429.7 700 429.3 750 427.8C800 426.3 850 423.7 875 422.3L900 421L900 601L875 601C850 601 800 601 750 601C700 601 650 601 600 601C550 601 500 601 450 601C400 601 350 601 300 601C250 601 200 601 150 601C100 601 50 601 25 601L0 601Z" fill="#008cff"></path><path d="M0 493L25 491C50 489 100 485 150 473.7C200 462.3 250 443.7 300 431.3C350 419 400 413 450 415C500 417 550 427 600 427.7C650 428.3 700 419.7 750 426.5C800 433.3 850 455.7 875 466.8L900 478L900 601L875 601C850 601 800 601 750 601C700 601 650 601 600 601C550 601 500 601 450 601C400 601 350 601 300 601C250 601 200 601 150 601C100 601 50 601 25 601L0 601Z" fill="#1e97fd"></path><path d="M0 491L25 494.2C50 497.3 100 503.7 150 504.8C200 506 250 502 300 501.8C350 501.7 400 505.3 450 499.5C500 493.7 550 478.3 600 476.2C650 474 700 485 750 484.3C800 483.7 850 471.3 875 465.2L900 459L900 601L875 601C850 601 800 601 750 601C700 601 650 601 600 601C550 601 500 601 450 601C400 601 350 601 300 601C250 601 200 601 150 601C100 601 50 601 25 601L0 601Z" fill="#37a2fb"></path><path d="M0 545L25 546.3C50 547.7 100 550.3 150 547.2C200 544 250 535 300 537C350 539 400 552 450 554.2C500 556.3 550 547.7 600 540.8C650 534 700 529 750 532.8C800 536.7 850 549.3 875 555.7L900 562L900 601L875 601C850 601 800 601 750 601C700 601 650 601 600 601C550 601 500 601 450 601C400 601 350 601 300 601C250 601 200 601 150 601C100 601 50 601 25 601L0 601Z" fill="#4facf7"></path></svg>