<svg id="visual" viewBox="0 0 900 600" width="900" height="600" xmlns="http://www.w3.org/2000/svg" xmlns:xlink="http://www.w3.org/1999/xlink" version="1.1"><rect x="0" y="0" width="900" height="600" fill="#ffffff"></rect><defs><linearGradient id="grad1_0" x1="33.3%" y1="0%" x2="100%" y2="100%"><stop offset="20%" stop-color="#007ae7" stop-opacity="1"></stop><stop offset="80%" stop-color="#007ae7" stop-opacity="1"></stop></linearGradient></defs><defs><linearGradient id="grad1_1" x1="33.3%" y1="0%" x2="100%" y2="100%"><stop offset="20%" stop-color="#007ae7" stop-opacity="1"></stop><stop offset="80%" stop-color="#6392ed" stop-opacity="1"></stop></linearGradient></defs><defs><linearGradient id="grad1_2" x1="33.3%" y1="0%" x2="100%" y2="100%"><stop offset="20%" stop-color="#91acf2" stop-opacity="1"></stop><stop offset="80%" stop-color="#6392ed" stop-opacity="1"></stop></linearGradient></defs><defs><linearGradient id="grad1_3" x1="33.3%" y1="0%" x2="100%" y2="100%"><stop offset="20%" stop-color="#91acf2" stop-opacity="1"></stop><stop offset="80%" stop-color="#b8c7f7" stop-opacity="1"></stop></linearGradient></defs><defs><linearGradient id="grad1_4" x1="33.3%" y1="0%" x2="100%" y2="100%"><stop offset="20%" stop-color="#dce3fb" stop-opacity="1"></stop><stop offset="80%" stop-color="#b8c7f7" stop-opacity="1"></stop></linearGradient></defs><defs><linearGradient id="grad1_5" x1="33.3%" y1="0%" x2="100%" y2="100%"><stop offset="20%" stop-color="#dce3fb" stop-opacity="1"></stop><stop offset="80%" stop-color="#ffffff" stop-opacity="1"></stop></linearGradient></defs><defs><linearGradient id="grad2_0" x1="0%" y1="0%" x2="66.7%" y2="100%"><stop offset="20%" stop-color="#007ae7" stop-opacity="1"></stop><stop offset="80%" stop-color="#007ae7" stop-opacity="1"></stop></linearGradient></defs><defs><linearGradient id="grad2_1" x1="0%" y1="0%" x2="66.7%" y2="100%"><stop offset="20%" stop-color="#6392ed" stop-opacity="1"></stop><stop offset="80%" stop-color="#007ae7" stop-opacity="1"></stop></linearGradient></defs><defs><linearGradient id="grad2_2" x1="0%" y1="0%" x2="66.7%" y2="100%"><stop offset="20%" stop-color="#6392ed" stop-opacity="1"></stop><stop offset="80%" stop-color="#91acf2" stop-opacity="1"></stop></linearGradient></defs><defs><linearGradient id="grad2_3" x1="0%" y1="0%" x2="66.7%" y2="100%"><stop offset="20%" stop-color="#b8c7f7" stop-opacity="1"></stop><stop offset="80%" stop-color="#91acf2" stop-opacity="1"></stop></linearGradient></defs><defs><linearGradient id="grad2_4" x1="0%" y1="0%" x2="66.7%" y2="100%"><stop offset="20%" stop-color="#b8c7f7" stop-opacity="1"></stop><stop offset="80%" stop-color="#dce3fb" stop-opacity="1"></stop></linearGradient></defs><defs><linearGradient id="grad2_5" x1="0%" y1="0%" x2="66.7%" y2="100%"><stop offset="20%" stop-color="#ffffff" stop-opacity="1"></stop><stop offset="80%" stop-color="#dce3fb" stop-opacity="1"></stop></linearGradient></defs><g transform="translate(900, 0)"><path d="M0 243.4C-16.9 245 -33.7 246.7 -47.5 238.7C-61.2 230.7 -71.9 213 -84.2 203.3C-96.5 193.5 -110.5 191.8 -125.6 187.9C-140.6 184 -156.9 177.9 -166.2 166.2C-175.5 154.4 -177.9 137 -184.6 123.3C-191.3 109.7 -202.2 99.9 -212.5 88C-222.8 76.1 -232.3 62.2 -237.4 47.2C-242.4 32.2 -242.9 16.1 -243.4 0L0 0Z" fill="#eef1fd"></path><path d="M0 202.8C-14.1 204.2 -28.1 205.6 -39.6 198.9C-51 192.2 -59.9 177.5 -70.2 169.4C-80.4 161.3 -92.1 159.8 -104.6 156.6C-117.2 153.3 -130.7 148.3 -138.5 138.5C-146.2 128.7 -148.2 114.1 -153.8 102.8C-159.4 91.4 -168.5 83.2 -177.1 73.3C-185.6 63.5 -193.6 51.9 -197.8 39.3C-202 26.8 -202.4 13.4 -202.8 0L0 0Z" fill="#cbd5f9"></path><path d="M0 162.2C-11.2 163.4 -22.5 164.5 -31.7 159.1C-40.8 153.8 -47.9 142 -56.1 135.5C-64.3 129 -73.6 127.9 -83.7 125.3C-93.8 122.7 -104.6 118.6 -110.8 110.8C-117 102.9 -118.6 91.3 -123.1 82.2C-127.5 73.1 -134.8 66.6 -141.7 58.7C-148.5 50.8 -154.9 41.5 -158.2 31.5C-161.6 21.5 -161.9 10.7 -162.2 0L0 0Z" fill="#a5b9f4"></path><path d="M0 121.7C-8.4 122.5 -16.9 123.4 -23.7 119.3C-30.6 115.3 -35.9 106.5 -42.1 101.6C-48.2 96.8 -55.2 95.9 -62.8 94C-70.3 92 -78.4 89 -83.1 83.1C-87.7 77.2 -88.9 68.5 -92.3 61.7C-95.6 54.9 -101.1 49.9 -106.2 44C-111.4 38.1 -116.2 31.1 -118.7 23.6C-121.2 16.1 -121.4 8.1 -121.7 0L0 0Z" fill="#7c9fef"></path><path d="M0 81.1C-5.6 81.7 -11.2 82.2 -15.8 79.6C-20.4 76.9 -24 71 -28.1 67.8C-32.2 64.5 -36.8 63.9 -41.9 62.6C-46.9 61.3 -52.3 59.3 -55.4 55.4C-58.5 51.5 -59.3 45.7 -61.5 41.1C-63.8 36.6 -67.4 33.3 -70.8 29.3C-74.3 25.4 -77.4 20.7 -79.1 15.7C-80.8 10.7 -81 5.4 -81.1 0L0 0Z" fill="#4586ea"></path><path d="M0 40.6C-2.8 40.8 -5.6 41.1 -7.9 39.8C-10.2 38.4 -12 35.5 -14 33.9C-16.1 32.3 -18.4 32 -20.9 31.3C-23.4 30.7 -26.1 29.7 -27.7 27.7C-29.2 25.7 -29.6 22.8 -30.8 20.6C-31.9 18.3 -33.7 16.6 -35.4 14.7C-37.1 12.7 -38.7 10.4 -39.6 7.9C-40.4 5.4 -40.5 2.7 -40.6 0L0 0Z" fill="#007ae7"></path></g><g transform="translate(0, 600)"><path d="M0 -243.4C14.6 -236.5 29.2 -229.6 45.3 -227.5C61.3 -225.5 78.8 -228.2 91.8 -221.7C104.9 -215.2 113.6 -199.5 127.8 -191.2C141.9 -183 161.6 -182.3 172.1 -172.1C182.6 -161.9 183.9 -142.3 190.4 -127.2C196.9 -112.2 208.4 -101.7 213.4 -88.4C218.4 -75.1 216.8 -59.1 220.7 -43.9C224.6 -28.7 234 -14.3 243.4 0L0 0Z" fill="#eef1fd"></path><path d="M0 -202.8C12.2 -197.1 24.4 -191.3 37.7 -189.6C51.1 -187.9 65.6 -190.2 76.5 -184.8C87.4 -179.4 94.7 -166.2 106.5 -159.4C118.3 -152.5 134.7 -151.9 143.4 -143.4C152.2 -134.9 153.3 -118.6 158.7 -106C164.1 -93.5 173.7 -84.7 177.8 -73.7C182 -62.6 180.7 -49.2 183.9 -36.6C187.1 -23.9 195 -12 202.8 0L0 0Z" fill="#cbd5f9"></path><path d="M0 -162.2C9.7 -157.7 19.5 -153.1 30.2 -151.7C40.9 -150.3 52.5 -152.2 61.2 -147.8C69.9 -143.5 75.7 -133 85.2 -127.5C94.6 -122 107.7 -121.5 114.7 -114.7C121.7 -107.9 122.6 -94.9 126.9 -84.8C131.2 -74.8 139 -67.8 142.3 -58.9C145.6 -50.1 144.5 -39.4 147.1 -29.3C149.7 -19.1 156 -9.6 162.2 0L0 0Z" fill="#a5b9f4"></path><path d="M0 -121.7C7.3 -118.2 14.6 -114.8 22.6 -113.8C30.6 -112.7 39.4 -114.1 45.9 -110.9C52.5 -107.6 56.8 -99.7 63.9 -95.6C71 -91.5 80.8 -91.1 86 -86C91.3 -81 92 -71.1 95.2 -63.6C98.4 -56.1 104.2 -50.8 106.7 -44.2C109.2 -37.6 108.4 -29.5 110.3 -21.9C112.3 -14.3 117 -7.2 121.7 0L0 0Z" fill="#7c9fef"></path><path d="M0 -81.1C4.9 -78.8 9.7 -76.5 15.1 -75.8C20.4 -75.2 26.3 -76.1 30.6 -73.9C35 -71.7 37.9 -66.5 42.6 -63.7C47.3 -61 53.9 -60.8 57.4 -57.4C60.9 -54 61.3 -47.4 63.5 -42.4C65.6 -37.4 69.5 -33.9 71.1 -29.5C72.8 -25 72.3 -19.7 73.6 -14.6C74.9 -9.6 78 -4.8 81.1 0L0 0Z" fill="#4586ea"></path><path d="M0 -40.6C2.4 -39.4 4.9 -38.3 7.5 -37.9C10.2 -37.6 13.1 -38 15.3 -37C17.5 -35.9 18.9 -33.2 21.3 -31.9C23.7 -30.5 26.9 -30.4 28.7 -28.7C30.4 -27 30.7 -23.7 31.7 -21.2C32.8 -18.7 34.7 -16.9 35.6 -14.7C36.4 -12.5 36.1 -9.8 36.8 -7.3C37.4 -4.8 39 -2.4 40.6 0L0 0Z" fill="#007ae7"></path></g></svg>